<?xml version="1.0" encoding="utf-8"?>
<!-- Generator: Adobe Illustrator 25.3.1, SVG Export Plug-In . SVG Version: 6.00 Build 0)  -->
<svg version="1.1" id="图层_1" xmlns="http://www.w3.org/2000/svg" xmlns:xlink="http://www.w3.org/1999/xlink" x="0px" y="0px"
	 viewBox="0 0 20.2 15.2" style="enable-background:new 0 0 20.2 15.2;" xml:space="preserve">
<style type="text/css">
	.st0{fill:#4D4D4D;fill-opacity:0;}
	.st1{fill:#4D4D4D;fill-opacity:0.85;}
</style>
<g>
	<rect class="st0" width="20.2" height="15.2"/>
	<path class="st1" d="M0.9,14.8c0.5,0,0.9-0.3,0.9-0.8V0.9C1.7,0.4,1.4,0,0.9,0C0.4,0,0,0.4,0,0.9V14C0,14.5,0.4,14.8,0.9,14.8z
		 M9.2,14.8c0.5,0,0.9-0.4,0.9-0.8c0-0.2-0.1-0.5-0.2-0.6l-2.2-2.2L3.8,7.6L3.6,8.2l2.9,0.1h12.9c0.5,0,0.9-0.4,0.9-0.9
		c0-0.5-0.4-0.9-0.9-0.9H6.5L3.6,6.6l0.2,0.5l3.8-3.5l2.2-2.2C9.9,1.3,10,1.1,10,0.8C10,0.4,9.6,0,9.2,0C8.9,0,8.7,0.1,8.5,0.3
		L2,6.7C1.8,6.9,1.7,7.2,1.7,7.4c0,0.2,0.1,0.5,0.3,0.7l6.5,6.5C8.7,14.7,8.9,14.8,9.2,14.8z"/>
</g>
</svg>
