<?xml version="1.0" encoding="utf-8"?>
<!-- Generator: Adobe Illustrator 25.3.1, SVG Export Plug-In . SVG Version: 6.00 Build 0)  -->
<svg version="1.1" id="图层_1" xmlns="http://www.w3.org/2000/svg" xmlns:xlink="http://www.w3.org/1999/xlink" x="0px" y="0px"
	 viewBox="0 0 20.2 15.2" style="enable-background:new 0 0 20.2 15.2;" xml:space="preserve">
<style type="text/css">
	.st0{fill:#4D4D4D;fill-opacity:0;}
	.st1{fill:#4D4D4D;fill-opacity:0.85;}
</style>
<g>
	<rect class="st0" width="20.2" height="15.2"/>
	<path class="st1" d="M11,14.8c0.2,0,0.4-0.1,0.6-0.3l6.5-6.5c0.2-0.2,0.3-0.4,0.3-0.7c0-0.2-0.1-0.5-0.3-0.7l-6.5-6.5
		C11.5,0.1,11.3,0,11,0c-0.5,0-0.8,0.4-0.8,0.8c0,0.2,0.1,0.5,0.2,0.6l2.2,2.2l3.8,3.5l0.2-0.5l-2.9-0.1H0.9C0.4,6.5,0,6.9,0,7.4
		c0,0.5,0.4,0.9,0.9,0.9h12.9l2.9-0.1l-0.2-0.5l-3.8,3.5l-2.2,2.2c-0.2,0.2-0.2,0.4-0.2,0.6C10.2,14.5,10.6,14.8,11,14.8z
		 M19.3,14.8c0.5,0,0.9-0.3,0.9-0.8V0.9c0-0.5-0.4-0.9-0.9-0.9c-0.5,0-0.9,0.4-0.9,0.9V14C18.5,14.5,18.8,14.8,19.3,14.8z"/>
</g>
</svg>
