<?xml version="1.0" encoding="utf-8"?>
<!-- Generator: Adobe Illustrator 25.3.1, SVG Export Plug-In . SVG Version: 6.00 Build 0)  -->
<svg version="1.1" id="图层_1" xmlns="http://www.w3.org/2000/svg" xmlns:xlink="http://www.w3.org/1999/xlink" x="0px" y="0px"
	 viewBox="0 0 21.1 17.9" style="enable-background:new 0 0 21.1 17.9;" xml:space="preserve">
<style type="text/css">
	.st0{fill:#4D4D4D;fill-opacity:0;}
	.st1{fill:#4D4D4D;fill-opacity:0.85;}
</style>
<g>
	<rect class="st0" width="21.1" height="17.9"/>
	<path class="st1" d="M9.5,17.9c0.7,0,1.1-0.5,1.1-1.1V13H11c3.8,0,6.2,1,7.9,4.2c0.3,0.6,0.8,0.7,1.2,0.7c0.5,0,1-0.5,1-1.3
		C21.1,9.4,18,4.9,11,4.9h-0.3V1.2c0-0.7-0.5-1.2-1.2-1.2C9,0,8.7,0.2,8.2,0.7L0.5,7.9C0.1,8.3,0,8.6,0,9c0,0.3,0.1,0.7,0.5,1
		l7.7,7.3C8.7,17.7,9.1,17.9,9.5,17.9z"/>
</g>
</svg>
