<?xml version="1.0" encoding="utf-8"?>
<!-- Generator: Adobe Illustrator 25.3.1, SVG Export Plug-In . SVG Version: 6.00 Build 0)  -->
<svg version="1.1" id="图层_1" xmlns="http://www.w3.org/2000/svg" xmlns:xlink="http://www.w3.org/1999/xlink" x="0px" y="0px"
	 viewBox="0 0 26.9 15.4" style="enable-background:new 0 0 26.9 15.4;" xml:space="preserve">
<style type="text/css">
	.st0{fill:#4D4D4D;fill-opacity:0;}
	.st1{fill:#4D4D4D;fill-opacity:0.85;}
</style>
<g>
	<rect class="st0" width="26.9" height="15.4"/>
	<path class="st1" d="M12.1,15.4c0.8,0,1.4-0.6,1.4-1.7v-12c0-1.1-0.6-1.7-1.4-1.7c-0.4,0-0.7,0.1-1.1,0.4L1,6.2
		C0.3,6.7,0,7.1,0,7.7c0,0.6,0.3,1,1,1.5l10,5.9C11.3,15.2,11.7,15.4,12.1,15.4z M11.6,13.6c-0.1,0-0.1,0-0.2-0.1L2.1,8
		C2,7.9,1.9,7.8,1.9,7.7c0-0.1,0.1-0.2,0.2-0.3l9.3-5.5c0.1,0,0.2-0.1,0.2-0.1c0.1,0,0.3,0.1,0.3,0.3v11.1
		C11.9,13.5,11.8,13.6,11.6,13.6z M25.5,15.4c0.8,0,1.4-0.6,1.4-1.7v-12c0-1.1-0.6-1.7-1.4-1.7c-0.4,0-0.7,0.1-1.1,0.4l-10,5.9
		c-0.7,0.4-1,0.9-1,1.4c0,0.6,0.3,1,1,1.5l10,5.9C24.7,15.2,25.1,15.4,25.5,15.4z M25,13.6c-0.1,0-0.1,0-0.2-0.1L15.5,8
		c-0.1-0.1-0.2-0.1-0.2-0.3c0-0.1,0.1-0.2,0.2-0.3l9.3-5.5c0.1,0,0.2-0.1,0.2-0.1c0.1,0,0.3,0.1,0.3,0.3v11.1
		C25.3,13.5,25.2,13.6,25,13.6z"/>
</g>
</svg>
