<?xml version="1.0" encoding="utf-8"?>
<!-- Generator: Adobe Illustrator 25.3.1, SVG Export Plug-In . SVG Version: 6.00 Build 0)  -->
<svg version="1.1" id="图层_1" xmlns="http://www.w3.org/2000/svg" xmlns:xlink="http://www.w3.org/1999/xlink" x="0px" y="0px"
	 viewBox="0 0 19.1 19.1" style="enable-background:new 0 0 19.1 19.1;" xml:space="preserve">
<style type="text/css">
	.st0{fill:#4D4D4D;fill-opacity:0;}
	.st1{fill:#4D4D4D;fill-opacity:0.85;}
</style>
<g>
	<rect class="st0" width="19.1" height="19.1"/>
	<path class="st1" d="M6.8,15.6h5.9c1.2,0,1.8-0.6,1.8-1.9V9.2H10c-0.7,0-1.1-0.4-1.1-1.1V3.5h-2C5.6,3.5,5,4.2,5,5.4v8.4
		C5,15,5.6,15.6,6.8,15.6z M10.3,8.1h4.2c0-0.2-0.2-0.5-0.5-0.8l-3.3-3.3c-0.3-0.3-0.5-0.4-0.8-0.5v4.2C10,8,10.1,8.1,10.3,8.1z
		 M0.8,6.2c0.5,0,0.8-0.3,0.8-0.8V3.1c0-1,0.5-1.5,1.5-1.5h2.4c0.5,0,0.8-0.3,0.8-0.8C6.2,0.3,6,0,5.4,0H3.1C1,0,0,1,0,3v2.4
		C0,5.9,0.3,6.2,0.8,6.2z M18.3,6.2c0.5,0,0.8-0.3,0.8-0.8V3c0-2-1-3-3.1-3h-2.4c-0.5,0-0.8,0.3-0.8,0.8c0,0.5,0.3,0.8,0.8,0.8H16
		c1,0,1.5,0.5,1.5,1.5v2.3C17.5,5.9,17.8,6.2,18.3,6.2z M3.1,19.1h2.4c0.5,0,0.8-0.3,0.8-0.8c0-0.5-0.3-0.8-0.8-0.8H3.1
		c-1,0-1.5-0.5-1.5-1.5v-2.3c0-0.5-0.3-0.8-0.8-0.8c-0.5,0-0.8,0.3-0.8,0.8v2.4C0,18.1,1,19.1,3.1,19.1z M13.7,19.1h2.4
		c2,0,3.1-1,3.1-3v-2.4c0-0.5-0.3-0.8-0.8-0.8c-0.5,0-0.8,0.3-0.8,0.8V16c0,1-0.6,1.5-1.5,1.5h-2.4c-0.5,0-0.8,0.3-0.8,0.8
		C12.9,18.8,13.2,19.1,13.7,19.1z"/>
</g>
</svg>
