<svg xmlns="http://www.w3.org/2000/svg" viewBox="0 0 53.68 26.55"><defs><style>.cls-1,.cls-2,.cls-3{fill:#4d4d4d;}.cls-1{fill-opacity:0;}.cls-2{fill-opacity:0.85;}.cls-3{font-size:19.07px;font-family:STHeitiSC-Medium, Heiti SC;font-weight:500;}</style></defs><g id="图层_2" data-name="图层 2"><g id="图层_1-2" data-name="图层 1"><rect class="cls-1" width="22.21" height="26.55"/><path class="cls-2" d="M3.07,22h11.2q3.06,0,3.06-3V9.27c0-2-1-3-3.06-3H11.54V7.81h2.7a1.37,1.37,0,0,1,1.52,1.54v9.58a1.37,1.37,0,0,1-1.52,1.53H3.09a1.37,1.37,0,0,1-1.52-1.53V9.35A1.37,1.37,0,0,1,3.09,7.81h2.7V6.24H3.07c-2,0-3.07,1-3.07,3V19C0,21,1,22,3.07,22Zm5.7,4.52H19.14c2,0,3.07-1,3.07-3V13.79c0-2-1-3-3.07-3H16.83v1.57h2.29a1.36,1.36,0,0,1,1.51,1.54v9.58A1.36,1.36,0,0,1,19.12,25H8.8a1.37,1.37,0,0,1-1.52-1.53V21.24H5.7v2.29C5.7,25.54,6.73,26.55,8.77,26.55ZM8.66,14.38a.78.78,0,0,0,.78-.75v-10L9.38,2.14l.66.69L11.52,4.4a.71.71,0,0,0,.53.24A.68.68,0,0,0,12.76,4a.67.67,0,0,0-.23-.52L9.23.25A.75.75,0,0,0,8.66,0,.76.76,0,0,0,8.1.25L4.79,3.44A.69.69,0,0,0,4.57,4a.66.66,0,0,0,.7.68.73.73,0,0,0,.54-.24L7.29,2.83,8,2.14,7.89,3.59v10A.77.77,0,0,0,8.66,14.38Z"/><text class="cls-3" transform="translate(25.81 22.03)">TXT</text></g></g></svg>