<?xml version="1.0" encoding="utf-8"?>
<!-- Generator: Adobe Illustrator 25.3.1, SVG Export Plug-In . SVG Version: 6.00 Build 0)  -->
<svg version="1.1" id="图层_1" xmlns="http://www.w3.org/2000/svg" xmlns:xlink="http://www.w3.org/1999/xlink" x="0px" y="0px"
	 viewBox="0 0 22.2 18" style="enable-background:new 0 0 22.2 18;" xml:space="preserve">
<style type="text/css">
	.st0{fill:#4D4D4D;fill-opacity:0;}
	.st1{fill:#4D4D4D;fill-opacity:0.85;}
</style>
<g>
	<rect class="st0" width="22.2" height="18"/>
	<path class="st1" d="M3.1,17.9h16.3c1.7,0,2.8-1,2.8-3v-10c0-2-1-3-3.1-3H9.7c-0.7,0-1.1-0.2-1.6-0.6L7.6,0.7C6.9,0.2,6.4,0,5.5,0
		H2.7C1,0,0,1,0,2.9v11.9C0,16.9,1,17.9,3.1,17.9z M3.1,16.3c-1,0-1.5-0.5-1.5-1.5V3c0-1,0.5-1.5,1.4-1.5h2.1c0.6,0,1,0.2,1.5,0.6
		l0.6,0.5c0.6,0.5,1.2,0.7,2.1,0.7h9.8c1,0,1.5,0.5,1.5,1.5v9.9c0,1-0.6,1.5-1.5,1.5H3.1z M1,6.9h20.3V5.5H1V6.9z"/>
</g>
</svg>
