<?xml version="1.0" encoding="utf-8"?>
<!-- Generator: Adobe Illustrator 25.3.1, SVG Export Plug-In . SVG Version: 6.00 Build 0)  -->
<svg version="1.1" id="图层_1" xmlns="http://www.w3.org/2000/svg" xmlns:xlink="http://www.w3.org/1999/xlink" x="0px" y="0px"
	 viewBox="0 0 20.7 20.9" style="enable-background:new 0 0 20.7 20.9;" xml:space="preserve">
<style type="text/css">
	.st0{fill:#4D4D4D;fill-opacity:0;}
	.st1{fill:#4D4D4D;fill-opacity:0.85;}
</style>
<g>
	<rect class="st0" width="20.7" height="20.9"/>
	<path class="st1" d="M10.5,6.4L9.2,7.7c1.3,0.1,2.1,0.5,2.8,1.1c1.7,1.7,1.7,4.1,0,5.8l-3.2,3.2c-1.7,1.7-4.1,1.7-5.8,0
		c-1.7-1.7-1.7-4.1,0-5.8l1.9-1.9c-0.3-0.6-0.3-1.3-0.2-2L1.8,11c-2.3,2.3-2.4,5.7,0,8c2.4,2.4,5.7,2.4,8,0l3.3-3.3
		c2.3-2.3,2.4-5.7,0-8C12.5,7,11.7,6.6,10.5,6.4z M10.2,14.4l1.3-1.3C10.2,13,9.4,12.6,8.8,12c-1.7-1.7-1.7-4.1,0-5.8L11.9,3
		c1.7-1.7,4.1-1.7,5.8,0c1.7,1.7,1.7,4.1,0,5.8l-1.9,1.9c0.3,0.6,0.3,1.3,0.2,2L19,9.8c2.3-2.3,2.4-5.7,0-8c-2.4-2.4-5.7-2.4-8,0
		L7.6,5.1c-2.3,2.3-2.4,5.7,0,8C8.2,13.7,9,14.2,10.2,14.4z"/>
</g>
</svg>
