<?xml version="1.0" encoding="utf-8"?>
<!-- Generator: Adobe Illustrator 25.3.1, SVG Export Plug-In . SVG Version: 6.00 Build 0)  -->
<svg version="1.1" id="图层_1" xmlns="http://www.w3.org/2000/svg" xmlns:xlink="http://www.w3.org/1999/xlink" x="0px" y="0px"
	 viewBox="0 0 11.9 15.9" style="enable-background:new 0 0 11.9 15.9;" xml:space="preserve">
<style type="text/css">
	.st0{fill:#4D4D4D;fill-opacity:0;}
	.st1{fill:#4D4D4D;fill-opacity:0.85;}
</style>
<g>
	<rect class="st0" width="11.9" height="15.9"/>
	<path class="st1" d="M1.3,15.9h2.2c0.8,0,1.3-0.4,1.3-1.3V1.3C4.8,0.4,4.4,0,3.5,0H1.3C0.4,0,0,0.4,0,1.3v13.3
		C0,15.5,0.4,15.9,1.3,15.9z M8.4,15.9h2.2c0.9,0,1.3-0.4,1.3-1.3V1.3c0-0.9-0.4-1.3-1.3-1.3H8.4C7.5,0,7.1,0.4,7.1,1.3v13.3
		C7.1,15.5,7.5,15.9,8.4,15.9z"/>
</g>
</svg>
