<?xml version="1.0" encoding="utf-8"?>
<!-- Generator: Adobe Illustrator 25.3.1, SVG Export Plug-In . SVG Version: 6.00 Build 0)  -->
<svg version="1.1" id="图层_1" xmlns="http://www.w3.org/2000/svg" xmlns:xlink="http://www.w3.org/1999/xlink" x="0px" y="0px"
	 viewBox="0 0 8.1 16.1" style="enable-background:new 0 0 8.1 16.1;" xml:space="preserve">
<style type="text/css">
	.st0{fill:#4D4D4D;fill-opacity:0;}
	.st1{fill:#4D4D4D;fill-opacity:0.85;}
</style>
<g>
	<rect class="st0" width="8.1" height="16.1"/>
	<path class="st1" d="M0.8,16.1c0.5,0,0.8-0.4,0.8-0.8V0.8C1.7,0.4,1.3,0,0.8,0C0.4,0,0,0.4,0,0.8v14.5C0,15.8,0.4,16.1,0.8,16.1z
		 M7.3,16.1c0.5,0,0.8-0.4,0.8-0.8V0.8C8.1,0.4,7.7,0,7.3,0C6.8,0,6.5,0.4,6.5,0.8v14.5C6.5,15.8,6.8,16.1,7.3,16.1z"/>
</g>
</svg>
