<?xml version="1.0" encoding="utf-8"?>
<!-- Generator: Adobe Illustrator 25.3.1, SVG Export Plug-In . SVG Version: 6.00 Build 0)  -->
<svg version="1.1" id="图层_1" xmlns="http://www.w3.org/2000/svg" xmlns:xlink="http://www.w3.org/1999/xlink" x="0px" y="0px"
	 viewBox="0 0 14.8 16.6" style="enable-background:new 0 0 14.8 16.6;" xml:space="preserve">
<style type="text/css">
	.st0{fill:#4D4D4D;fill-opacity:0;}
	.st1{fill:#4D4D4D;fill-opacity:0.85;}
</style>
<g>
	<rect class="st0" width="14.8" height="16.6"/>
	<path class="st1" d="M1.2,16.6c0.4,0,0.7-0.2,1.1-0.4l11.4-6.6c0.8-0.5,1.1-0.8,1.1-1.3S14.5,7.5,13.7,7L2.3,0.4
		C1.9,0.2,1.6,0,1.2,0C0.4,0,0,0.6,0,1.4v13.7C0,16,0.4,16.6,1.2,16.6z M1.7,14.7c-0.1,0-0.1,0-0.1-0.1V2c0-0.1,0-0.1,0.1-0.1
		c0,0,0.1,0,0.1,0l10.8,6.2c0,0,0.1,0.1,0.1,0.1s0,0.1-0.1,0.1L1.8,14.6C1.7,14.7,1.7,14.7,1.7,14.7z"/>
</g>
</svg>
