<?xml version="1.0" encoding="utf-8"?>
<!-- Generator: Adobe Illustrator 25.3.1, SVG Export Plug-In . SVG Version: 6.00 Build 0)  -->
<svg version="1.1" id="图层_1" xmlns="http://www.w3.org/2000/svg" xmlns:xlink="http://www.w3.org/1999/xlink" x="0px" y="0px"
	 viewBox="0 0 19.9 19.9" style="enable-background:new 0 0 19.9 19.9;" xml:space="preserve">
<style type="text/css">
	.st0{fill:#4D4D4D;fill-opacity:0;}
	.st1{fill:#4D4D4D;fill-opacity:0.85;}
</style>
<g>
	<rect class="st0" width="19.9" height="19.9"/>
	<path class="st1" d="M10,19.9c5.4,0,10-4.5,10-10c0-5.4-4.5-10-10-10C4.5,0,0,4.5,0,10C0,15.4,4.5,19.9,10,19.9z M10,18.3
		c-4.6,0-8.3-3.7-8.3-8.3c0-4.6,3.7-8.3,8.3-8.3c4.6,0,8.3,3.7,8.3,8.3C18.3,14.6,14.6,18.3,10,18.3z M9.8,12c0.5,0,0.8-0.3,0.8-0.7
		c0,0,0-0.1,0-0.1c0-0.5,0.3-0.9,1-1.3c0.9-0.6,1.6-1.2,1.6-2.4c0-1.6-1.4-2.5-3.1-2.5C8.4,5,7.3,5.8,7,6.7C7,6.8,6.9,7,6.9,7.1
		c0,0.4,0.3,0.7,0.7,0.7c0.3,0,0.5-0.2,0.7-0.4l0.2-0.2C8.8,6.6,9.3,6.3,10,6.3c0.9,0,1.5,0.5,1.5,1.2c0,0.7-0.4,1-1.3,1.6
		c-0.7,0.5-1.2,1-1.2,2c0,0,0,0.1,0,0.1C9,11.7,9.3,12,9.8,12z M9.7,14.9c0.6,0,1.1-0.4,1.1-1c0-0.6-0.5-1-1.1-1s-1.1,0.5-1.1,1
		C8.7,14.4,9.2,14.9,9.7,14.9z"/>
</g>
</svg>
