<?xml version="1.0" encoding="utf-8"?>
<!-- Generator: Adobe Illustrator 25.3.1, SVG Export Plug-In . SVG Version: 6.00 Build 0)  -->
<svg version="1.1" id="图层_1" xmlns="http://www.w3.org/2000/svg" xmlns:xlink="http://www.w3.org/1999/xlink" x="0px" y="0px"
	 viewBox="0 0 17.9 18.1" style="enable-background:new 0 0 17.9 18.1;" xml:space="preserve">
<style type="text/css">
	.st0{fill:#4D4D4D;fill-opacity:0;}
	.st1{fill:#4D4D4D;fill-opacity:0.85;}
</style>
<g>
	<rect class="st0" width="17.9" height="18.1"/>
	<path class="st1" d="M0,11.3c0,1.3,1.1,2.3,2.3,2.3s2.4-1.1,2.4-2.3S3.6,9,2.3,9S0,10,0,11.3z M1.2,11.3c0-0.6,0.5-1.1,1.2-1.1
		c0.6,0,1.1,0.5,1.1,1.1S3,12.5,2.4,12.5C1.7,12.5,1.2,12,1.2,11.3z M2.4,0C1.9,0,1.6,0.4,1.6,0.8v9h1.6v-9C3.1,0.4,2.8,0,2.4,0z
		 M2.4,17.2c0.4,0,0.8-0.4,0.8-0.8V13H1.6v3.4C1.6,16.8,1.9,17.2,2.4,17.2z M6.6,5.7C6.6,7,7.6,8,8.9,8s2.3-1.1,2.3-2.3
		s-1.1-2.3-2.3-2.3C7.6,3.3,6.6,4.4,6.6,5.7z M7.8,5.7c0-0.6,0.5-1.1,1.1-1.1S10,5.1,10,5.7S9.5,6.8,8.9,6.8
		C8.3,6.8,7.8,6.3,7.8,5.7z M8.9,0C8.5,0,8.2,0.4,8.2,0.8V4h1.6V0.8C9.7,0.4,9.4,0,8.9,0z M8.9,17.2c0.4,0,0.8-0.4,0.8-0.8V7.2H8.2
		v9.2C8.2,16.8,8.5,17.2,8.9,17.2z M13.2,11.3c0,1.3,1.1,2.3,2.3,2.3c1.3,0,2.3-1.1,2.3-2.3S16.8,9,15.5,9S13.2,10,13.2,11.3z
		 M14.4,11.3c0-0.6,0.5-1.1,1.1-1.1c0.7,0,1.1,0.5,1.1,1.1s-0.5,1.1-1.1,1.1C14.9,12.5,14.4,12,14.4,11.3z M15.5,0
		c-0.4,0-0.8,0.4-0.8,0.8v9h1.6v-9C16.3,0.4,16,0,15.5,0z M15.5,17.2c0.4,0,0.8-0.4,0.8-0.8v-3.5h-1.6v3.5
		C14.7,16.8,15.1,17.2,15.5,17.2z"/>
</g>
</svg>
