<?xml version="1.0" encoding="utf-8"?>
<!-- Generator: Adobe Illustrator 25.3.1, SVG Export Plug-In . SVG Version: 6.00 Build 0)  -->
<svg version="1.1" id="图层_1" xmlns="http://www.w3.org/2000/svg" xmlns:xlink="http://www.w3.org/1999/xlink" x="0px" y="0px"
	 viewBox="0 0 17.3 21.6" style="enable-background:new 0 0 17.3 21.6;" xml:space="preserve">
<style type="text/css">
	.st0{fill:#4D4D4D;fill-opacity:0;}
	.st1{fill:#4D4D4D;fill-opacity:0.85;}
</style>
<g>
	<rect class="st0" width="17.3" height="21.6"/>
	<path class="st1" d="M3.1,21.1h11.2c2,0,3.1-1,3.1-3V8.3c0-2-1-3-3.1-3h-2.7v1.6h2.7c1,0,1.5,0.5,1.5,1.5V18c0,1-0.6,1.5-1.5,1.5
		H3.1c-1,0-1.5-0.5-1.5-1.5V8.4c0-1,0.5-1.5,1.5-1.5h2.7V5.3H3.1c-2,0-3.1,1-3.1,3V18C0,20.1,1,21.1,3.1,21.1z M8.7,14.7
		c0.2,0,0.4-0.1,0.6-0.3l3.3-3.2c0.1-0.1,0.2-0.3,0.2-0.5c0-0.4-0.3-0.7-0.7-0.7c-0.2,0-0.4,0.1-0.5,0.2L10,11.8l-0.7,0.7L9.4,11
		V0.8C9.4,0.4,9.1,0,8.7,0S7.9,0.4,7.9,0.8v10.3L8,12.6l-0.7-0.7l-1.5-1.6C5.7,10.1,5.5,10,5.3,10c-0.4,0-0.7,0.3-0.7,0.7
		c0,0.2,0.1,0.4,0.2,0.5l3.3,3.2C8.3,14.6,8.5,14.7,8.7,14.7z"/>
</g>
</svg>
