<?xml version="1.0" encoding="utf-8"?>
<!-- Generator: Adobe Illustrator 25.3.1, SVG Export Plug-In . SVG Version: 6.00 Build 0)  -->
<svg version="1.1" id="图层_1" xmlns="http://www.w3.org/2000/svg" xmlns:xlink="http://www.w3.org/1999/xlink" x="0px" y="0px"
	 viewBox="0 0 19.1 19.1" style="enable-background:new 0 0 19.1 19.1;" xml:space="preserve">
<style type="text/css">
	.st0{fill:#4D4D4D;fill-opacity:0;}
	.st1{fill:#4D4D4D;fill-opacity:0.85;}
</style>
<g>
	<rect class="st0" width="19.1" height="19.1"/>
	<path class="st1" d="M4.3,5.8c0,0.4,0.3,0.7,0.7,0.7h9.1c0.4,0,0.7-0.3,0.7-0.7s-0.3-0.7-0.7-0.7H5C4.6,5.2,4.3,5.5,4.3,5.8z
		 M4.3,9.6c0,0.4,0.3,0.7,0.7,0.7h9.1c0.4,0,0.7-0.3,0.7-0.7s-0.3-0.7-0.7-0.7H5C4.6,8.9,4.3,9.2,4.3,9.6z M4.3,13.3
		C4.3,13.7,4.6,14,5,14h6c0.4,0,0.7-0.3,0.7-0.7c0-0.4-0.3-0.7-0.7-0.7H5C4.6,12.7,4.3,13,4.3,13.3z M0.8,6.2c0.5,0,0.8-0.3,0.8-0.8
		V3.1c0-1,0.5-1.5,1.5-1.5h2.4c0.5,0,0.8-0.3,0.8-0.8C6.2,0.3,6,0,5.4,0H3.1C1,0,0,1,0,3v2.4C0,5.9,0.3,6.2,0.8,6.2z M18.3,6.2
		c0.5,0,0.8-0.3,0.8-0.8V3c0-2-1-3-3.1-3h-2.4c-0.5,0-0.8,0.3-0.8,0.8c0,0.5,0.3,0.8,0.8,0.8H16c1,0,1.5,0.5,1.5,1.5v2.3
		C17.5,5.9,17.8,6.2,18.3,6.2z M3.1,19.1h2.4c0.5,0,0.8-0.3,0.8-0.8c0-0.5-0.3-0.8-0.8-0.8H3.1c-1,0-1.5-0.5-1.5-1.5v-2.3
		c0-0.5-0.3-0.8-0.8-0.8c-0.5,0-0.8,0.3-0.8,0.8v2.4C0,18.1,1,19.1,3.1,19.1z M13.7,19.1h2.4c2,0,3.1-1,3.1-3v-2.4
		c0-0.5-0.3-0.8-0.8-0.8c-0.5,0-0.8,0.3-0.8,0.8V16c0,1-0.6,1.5-1.5,1.5h-2.4c-0.5,0-0.8,0.3-0.8,0.8C12.9,18.8,13.2,19.1,13.7,19.1
		z"/>
</g>
</svg>
