<?xml version="1.0" encoding="utf-8"?>
<!-- Generator: Adobe Illustrator 25.3.1, SVG Export Plug-In . SVG Version: 6.00 Build 0)  -->
<svg version="1.1" id="图层_1" xmlns="http://www.w3.org/2000/svg" xmlns:xlink="http://www.w3.org/1999/xlink" x="0px" y="0px"
	 viewBox="0 0 18.9 23.5" style="enable-background:new 0 0 18.9 23.5;" xml:space="preserve">
<style type="text/css">
	.st0{fill:#4D4D4D;fill-opacity:0;}
	.st1{fill:#4D4D4D;fill-opacity:0.85;}
</style>
<g>
	<rect class="st0" width="18.9" height="23.5"/>
	<path class="st1" d="M5.2,4.5h1.6V2.4c0-0.6,0.4-0.9,1-0.9h3.5c0.6,0,1,0.4,1,0.9v2.1h1.6V2.3c0-1.4-0.9-2.3-2.4-2.3H7.6
		C6.1,0,5.2,0.9,5.2,2.3V4.5z M0.7,5.2h17.5c0.4,0,0.7-0.3,0.7-0.7c0-0.4-0.3-0.7-0.7-0.7H0.7C0.3,3.8,0,4.1,0,4.5
		C0,4.9,0.3,5.2,0.7,5.2z M5,21.7h9c1.4,0,2.3-0.9,2.4-2.3L17,5.1h-1.6l-0.7,14.2c0,0.6-0.4,1-1,1H5.1c-0.6,0-1-0.4-1-1L3.4,5.1H1.9
		l0.7,14.4C2.6,20.8,3.6,21.7,5,21.7z M6.6,18.6c0.4,0,0.6-0.2,0.6-0.6L6.9,7.6C6.9,7.2,6.6,7,6.3,7C5.9,7,5.6,7.2,5.7,7.6L5.9,18
		C6,18.4,6.2,18.6,6.6,18.6z M9.5,18.6c0.4,0,0.6-0.2,0.6-0.6V7.6C10.1,7.2,9.8,7,9.5,7C9.1,7,8.8,7.2,8.8,7.6V18
		C8.8,18.4,9.1,18.6,9.5,18.6z M12.4,18.6c0.4,0,0.6-0.2,0.6-0.6l0.3-10.4C13.3,7.2,13,7,12.6,7c-0.4,0-0.6,0.2-0.6,0.6L11.7,18
		C11.7,18.4,12,18.6,12.4,18.6z"/>
</g>
</svg>
