<?xml version="1.0" encoding="utf-8"?>
<!-- Generator: Adobe Illustrator 25.3.1, SVG Export Plug-In . SVG Version: 6.00 Build 0)  -->
<svg version="1.1" id="图层_1" xmlns="http://www.w3.org/2000/svg" xmlns:xlink="http://www.w3.org/1999/xlink" x="0px" y="0px"
	 viewBox="0 0 23 22.6" style="enable-background:new 0 0 23 22.6;" xml:space="preserve">
<style type="text/css">
	.st0{fill:#4D4D4D;fill-opacity:0;}
	.st1{fill:#4D4D4D;fill-opacity:0.85;}
</style>
<g>
	<rect class="st0" width="23" height="22.6"/>
	<path class="st1" d="M3.1,21.6H20c2.1,0,3.1-1,3.1-3v-5.8c0-0.9-0.1-1.3-0.6-1.9l-3.4-4.2c-1.1-1.4-1.8-2.2-3.6-2.2h-1.4v1.4h1.5
		c0.7,0,1.5,0.6,1.9,1.2l3.5,4.4c0.4,0.5,0.3,0.7-0.3,0.7h-6.2c-0.5,0-0.7,0.4-0.7,0.8l0,0c0,1.1-0.9,2.3-2.3,2.3S9.2,14.1,9.2,13
		l0,0c0-0.4-0.2-0.8-0.8-0.8H2.3c-0.6,0-0.7-0.2-0.3-0.7l3.5-4.4C6,6.5,6.7,5.9,7.4,5.9H9V4.5H7.5c-1.7,0-2.4,0.8-3.6,2.2l-3.4,4.2
		c-0.4,0.5-0.6,1-0.6,1.9v5.8C0,20.6,1,21.6,3.1,21.6z M3.1,20c-1,0-1.5-0.5-1.5-1.5v-4.9h6.2c0.2,1.8,1.8,3.2,3.8,3.2
		s3.5-1.4,3.8-3.2h6.2v4.9c0,1-0.5,1.5-1.5,1.5C20.1,20,3.1,20,3.1,20z M11.5,12.1c0.2,0,0.4-0.1,0.6-0.3l3.3-3.2
		c0.1-0.1,0.2-0.3,0.2-0.5c0-0.4-0.3-0.7-0.7-0.7c-0.2,0-0.4,0.1-0.5,0.2l-1.5,1.6l-0.7,0.7l0.1-1.5V0.8c0-0.4-0.4-0.8-0.8-0.8
		c-0.4,0-0.8,0.3-0.8,0.8v7.7l0.1,1.5l-0.7-0.7L8.7,7.7C8.5,7.5,8.3,7.4,8.1,7.4c-0.4,0-0.7,0.3-0.7,0.7c0,0.2,0.1,0.4,0.2,0.5
		l3.3,3.2C11.1,12,11.3,12.1,11.5,12.1z"/>
</g>
</svg>
