<?xml version="1.0" encoding="utf-8"?>
<!-- Generator: Adobe Illustrator 25.3.1, SVG Export Plug-In . SVG Version: 6.00 Build 0)  -->
<svg version="1.1" id="图层_1" xmlns="http://www.w3.org/2000/svg" xmlns:xlink="http://www.w3.org/1999/xlink" x="0px" y="0px"
	 viewBox="0 0 23 24.7" style="enable-background:new 0 0 23 24.7;" xml:space="preserve">
<style type="text/css">
	.st0{fill:#4D4D4D;fill-opacity:0;}
	.st1{fill:#4D4D4D;fill-opacity:0.85;}
</style>
<g>
	<rect class="st0" width="23" height="24.7"/>
	<path class="st1" d="M3.1,22.6H20c2.1,0,3.1-1,3.1-3v-5.8c0-0.9-0.1-1.3-0.6-1.9l-3.1-3.8c-1.2-1.5-1.7-1.8-3.4-1.8h-1.9v1.4h2
		c0.7,0,1.2,0.1,1.7,0.8l3.2,4c0.4,0.5,0.3,0.7-0.3,0.7h-6.2c-0.5,0-0.7,0.4-0.7,0.8v0c0,1.1-0.9,2.3-2.3,2.3
		c-1.4,0-2.3-1.2-2.3-2.3v0c0-0.4-0.2-0.8-0.8-0.8H2.3c-0.6,0-0.7-0.2-0.3-0.7l3.2-4c0.6-0.7,1-0.9,1.7-0.9h2V6.3H7
		c-1.7,0-2.2,0.3-3.4,1.8L0.6,12c-0.4,0.5-0.6,1-0.6,1.9v5.8C0,21.6,1,22.6,3.1,22.6z M3.1,21.1c-1,0-1.5-0.5-1.5-1.5v-4.9h6.2
		c0.2,1.8,1.8,3.2,3.8,3.2c2,0,3.5-1.4,3.8-3.2h6.2v4.9c0,1-0.5,1.5-1.5,1.5H3.1z M11.5,14.4c0.4,0,0.8-0.4,0.8-0.8v-10l-0.1-1.5
		l0.7,0.7l1.5,1.6c0.1,0.2,0.3,0.2,0.5,0.2c0.4,0,0.7-0.3,0.7-0.7c0-0.2-0.1-0.4-0.2-0.5l-3.3-3.2C11.9,0.1,11.7,0,11.5,0
		c-0.2,0-0.4,0.1-0.6,0.3L7.6,3.4C7.5,3.6,7.4,3.8,7.4,4c0,0.4,0.3,0.7,0.7,0.7c0.2,0,0.4-0.1,0.5-0.2l1.5-1.6l0.7-0.7l-0.1,1.5v10
		C10.7,14,11.1,14.4,11.5,14.4z"/>
</g>
</svg>
