<?xml version="1.0" encoding="utf-8"?>
<!-- Generator: Adobe Illustrator 25.3.1, SVG Export Plug-In . SVG Version: 6.00 Build 0)  -->
<svg version="1.1" id="图层_1" xmlns="http://www.w3.org/2000/svg" xmlns:xlink="http://www.w3.org/1999/xlink" x="0px" y="0px"
	 viewBox="0 0 158.1 114.1" style="enable-background:new 0 0 158.1 114.1;" xml:space="preserve">
<style type="text/css">
	.st0{fill:#F70303;fill-opacity:0;}
	.st1{fill:#F70303;fill-opacity:0.85;}
</style>
<rect y="70.3" class="st0" width="55.1" height="43"/>
<path class="st1" d="M52.7,104.8l-13.9-13c-1-0.9-2.2-1.4-3.5-1.4c-1.3,0-2.6,0.5-3.5,1.4l-10.6,9.4l-4.3-3.9
	c-0.8-0.8-2-1.3-3.2-1.3c-1.1,0-2.2,0.5-3,1.3l-8.9,8c0.1,4.2,1.9,6.4,5.3,6.4h39.2C50.6,111.7,52.7,109.3,52.7,104.8z M17.4,92
	c3,0,5.5-2.5,5.5-5.5c0-3-2.5-5.5-5.5-5.5s-5.5,2.5-5.5,5.5c0,0,0,0,0,0C11.9,89.5,14.4,92,17.4,92z M7.3,113.3h40.4
	c4.9,0,7.3-2.4,7.3-7.2V77.5c0-4.8-2.4-7.2-7.3-7.2H7.3c-4.9,0-7.3,2.4-7.3,7.2v28.6C0,110.9,2.4,113.3,7.3,113.3z M7.3,109.6
	c-2.3,0-3.6-1.2-3.6-3.7V77.7c0-2.4,1.3-3.7,3.6-3.7h40.4c2.3,0,3.6,1.3,3.6,3.7v28.1c0,2.4-1.3,3.7-3.6,3.7H7.3z"/>
<path class="st1" d="M72.7,43c0-8.1-6.6-14.6-14.6-14.5S43.5,35,43.5,43.1c0,8.1,6.6,14.6,14.6,14.5C66.2,57.6,72.7,51,72.7,43z"/>
<path class="st1" d="M138.6,0H31.4c-13,0-19.5,6.4-19.5,19.2v45.7h10V19.8c0-6.4,3.4-9.8,9.6-9.8h107c6.1,0,9.6,3.3,9.6,9.8v68.5
	L114.9,57c-2.5-2.4-5.9-3.8-9.4-3.8c-3.5,0-6.8,1.3-9.3,3.7l-28,25l-7.5-6.7c0.2,0.9,0.3,1.9,0.3,2.8v28.4c0,2.8-0.9,5.5-2.5,7.7
	h80.1c13,0,19.5-6.4,19.5-19.2V19.2C158.1,6.4,151.7,0,138.6,0z"/>
</svg>
