<?xml version="1.0" encoding="utf-8"?>
<!-- Generator: Adobe Illustrator 25.3.1, SVG Export Plug-In . SVG Version: 6.00 Build 0)  -->
<svg version="1.1" id="图层_1" xmlns="http://www.w3.org/2000/svg" xmlns:xlink="http://www.w3.org/1999/xlink" x="0px" y="0px"
	 viewBox="0 0 23.9 19.9" style="enable-background:new 0 0 23.9 19.9;" xml:space="preserve">
<style type="text/css">
	.st0{fill:#4D4D4D;fill-opacity:0;}
	.st1{fill:#4D4D4D;fill-opacity:0.85;}
</style>
<g>
	<rect class="st0" width="23.9" height="19.9"/>
	<path class="st1" d="M0.2,10c-0.4,0.5-0.2,1,0.5,1H2c0.5,5,4.8,8.9,9.9,8.9c3,0,5.7-1.4,7.5-3.5c0.4-0.4,0.3-0.9-0.1-1.2
		c-0.4-0.3-0.8-0.2-1.2,0.2c-1.5,1.7-3.8,2.8-6.3,2.8c-4.3,0-7.7-3.2-8.2-7.3h1.5c0.7,0,0.9-0.5,0.5-1L3.5,6.9
		c-0.3-0.4-0.8-0.5-1.1,0L0.2,10z M4.4,3.5C4.1,3.9,4.1,4.4,4.5,4.7C4.9,5,5.4,4.9,5.7,4.5c1.5-1.7,3.8-2.8,6.3-2.8
		c4.2,0,7.7,3.2,8.2,7.3h-1.5c-0.7,0-0.9,0.5-0.5,1l2.2,3.1c0.3,0.4,0.8,0.5,1.1,0l2.2-3.1c0.4-0.5,0.2-1-0.5-1h-1.3
		C21.3,4,17,0,11.9,0C9,0,6.3,1.3,4.4,3.5z"/>
</g>
</svg>
