<?xml version="1.0" encoding="utf-8"?>
<!-- Generator: Adobe Illustrator 25.3.1, SVG Export Plug-In . SVG Version: 6.00 Build 0)  -->
<svg version="1.1" id="图层_1" xmlns="http://www.w3.org/2000/svg" xmlns:xlink="http://www.w3.org/1999/xlink" x="0px" y="0px"
	 viewBox="0 0 19.9 19.9" style="enable-background:new 0 0 19.9 19.9;" xml:space="preserve">
<style type="text/css">
	.st0{fill:#6BD45F;fill-opacity:0;}
	.st1{fill:#6BD45F;fill-opacity:0.85;}
</style>
<g>
	<rect class="st0" width="19.9" height="19.9"/>
	<path class="st1" d="M10,19.9c5.4,0,10-4.5,10-10c0-5.4-4.5-10-10-10C4.5,0,0,4.5,0,10C0,15.4,4.5,19.9,10,19.9z M10,4.8
		c0.4,0,0.8,0.3,0.8,0.8v5l-0.1,2.1l1-1.2l1.2-1.2c0.1-0.2,0.3-0.2,0.5-0.2c0.4,0,0.7,0.3,0.7,0.7c0,0.2-0.1,0.4-0.2,0.5l-3.3,3.3
		C10.4,14.9,10.2,15,10,15c-0.2,0-0.4-0.1-0.6-0.3L6,11.4c-0.1-0.1-0.2-0.3-0.2-0.5c0-0.4,0.3-0.7,0.7-0.7c0.2,0,0.4,0.1,0.5,0.2
		l1.2,1.2l1,1.2l-0.1-2.1v-5C9.2,5.1,9.5,4.8,10,4.8z"/>
</g>
</svg>
