<?xml version="1.0" encoding="utf-8"?>
<!-- Generator: Adobe Illustrator 25.3.1, SVG Export Plug-In . SVG Version: 6.00 Build 0)  -->
<svg version="1.1" id="图层_1" xmlns="http://www.w3.org/2000/svg" xmlns:xlink="http://www.w3.org/1999/xlink" x="0px" y="0px"
	 viewBox="0 0 24.6 20.8" style="enable-background:new 0 0 24.6 20.8;" xml:space="preserve">
<style type="text/css">
	.st0{fill:#4D4D4D;fill-opacity:0;}
	.st1{fill:#4D4D4D;fill-opacity:0.85;}
</style>
<g>
	<rect class="st0" width="24.6" height="20.8"/>
	<path class="st1" d="M5.8,18.1h9.3l-1.6-1.6H5.8c-2.5,0-4.3-1.7-4.3-3.7c0-2,1.2-3.5,3.3-3.5C5,9.3,5,9.2,5,9.1c0-0.4,0-0.7,0.2-1
		L3.9,6.8C3.7,7.2,3.6,7.6,3.6,8.1C1.4,8.4,0,10.4,0,12.8C0,15.7,2.5,18.1,5.8,18.1z M20.5,17.9c2.4-0.5,4.1-2.4,4.1-4.7
		c0-2.1-1.2-3.8-3.1-4.6c0-4.4-3.1-7.5-7.1-7.5c-2.6,0-4.5,1.4-5.7,3.1C8,4.1,7.4,4.1,6.8,4.2l1.5,1.5c0.3,0,0.6,0,0.9,0.1
		c0.1,0,0.2,0,0.2-0.1c0.9-1.7,2.4-3.1,4.9-3.1c3.2,0,5.4,2.5,5.6,5.4c0,0.4,0,1,0,1.4c0,0.1,0,0.2,0.2,0.2c1.8,0.4,2.9,1.7,2.9,3.5
		c0,1.8-1.6,3.3-3.7,3.3h-0.2L20.5,17.9z M19.3,20.6c0.3,0.3,0.8,0.3,1.1,0c0.3-0.3,0.3-0.8,0-1.1L4.1,3.2C3.8,2.9,3.3,2.9,3,3.2
		C2.7,3.5,2.7,4,3,4.3L19.3,20.6z"/>
</g>
</svg>
