<?xml version="1.0" encoding="utf-8"?>
<!-- Generator: Adobe Illustrator 25.3.1, SVG Export Plug-In . SVG Version: 6.00 Build 0)  -->
<svg version="1.1" id="图层_1" xmlns="http://www.w3.org/2000/svg" xmlns:xlink="http://www.w3.org/1999/xlink" x="0px" y="0px"
	 viewBox="0 0 24.6 23.4" style="enable-background:new 0 0 24.6 23.4;" xml:space="preserve">
<style type="text/css">
	.st0{fill:#4D4D4D;fill-opacity:0;}
	.st1{fill:#4D4D4D;fill-opacity:0.85;}
</style>
<g>
	<rect class="st0" width="24.6" height="23.4"/>
	<path class="st1" d="M5.3,17.6h6.1v-6c0-0.5,0.4-1,1-1c0.5,0,1,0.4,1,1v6h6.5c2.8,0,4.7-1.8,4.7-4.1c0-1.9-1.2-3.7-3.1-4.5
		c0-4.4-3.1-7.5-7.1-7.5c-2.6,0-4.5,1.4-5.7,3.1c-2.2-0.6-5,1.1-5.1,3.9C1.4,8.9,0,10.9,0,13.1C0,15.6,2.1,17.6,5.3,17.6z
		 M12.3,23.4c0.2,0,0.4-0.1,0.6-0.3l3.3-3.2c0.1-0.1,0.2-0.3,0.2-0.5c0-0.4-0.3-0.7-0.7-0.7c-0.2,0-0.4,0.1-0.5,0.2l-1.5,1.6
		l-0.7,0.7l0.1-1.5v-2.2c0-0.4-0.4-0.8-0.8-0.8c-0.4,0-0.8,0.4-0.8,0.8v2.2l0.1,1.5L11,20.6L9.5,19c-0.1-0.2-0.4-0.2-0.5-0.2
		c-0.4,0-0.7,0.3-0.7,0.7c0,0.2,0.1,0.4,0.2,0.5l3.3,3.2C12,23.3,12.1,23.4,12.3,23.4z"/>
</g>
</svg>
