<?xml version="1.0" encoding="utf-8"?>
<!-- Generator: Adobe Illustrator 25.3.1, SVG Export Plug-In . SVG Version: 6.00 Build 0)  -->
<svg version="1.1" id="图层_1" xmlns="http://www.w3.org/2000/svg" xmlns:xlink="http://www.w3.org/1999/xlink" x="0px" y="0px"
	 viewBox="0 0 640 480" style="enable-background:new 0 0 640 480;" xml:space="preserve">
<style type="text/css">
	.st0{fill:#4D9ED6;}
</style>
<path class="st0" d="M563.1,36.9H76.9C35,36.9,14,56.8,14,99.6v280.6c0,43.1,21.1,62.9,62.9,62.9h486.2c41.9,0,62.9-19.8,62.9-62.9
	V99.6C626,56.8,605,36.9,563.1,36.9z M413.5,171.8c0,14.9-3.4,17.6-15.9,20.6l-60.2,14.7c-5.9,1.5-8.1,3.7-8.1,13.2v88.1
	c0,37.2-25,63.4-61.7,63.4c-25.7,0-42.1-15.7-42.1-37.7c0-25.2,19.6-38.9,42.8-45l23.7-6.1c12.7-3.4,13.7-5.9,13.7-17.4V150.3
	c0-15.4,2.9-17.9,15.4-21.1l75.4-18.6c13.7-3.7,16.9,0.7,16.9,10.5V171.8z"/>
</svg>
