<?xml version="1.0" encoding="utf-8"?>
<!-- Generator: Adobe Illustrator 25.3.1, SVG Export Plug-In . SVG Version: 6.00 Build 0)  -->
<svg version="1.1" id="图层_1" xmlns="http://www.w3.org/2000/svg" xmlns:xlink="http://www.w3.org/1999/xlink" x="0px" y="0px"
	 viewBox="0 0 23 18" style="enable-background:new 0 0 23 18;" xml:space="preserve">
<style type="text/css">
	.st0{fill:#4D4D4D;fill-opacity:0;}
	.st1{fill:#4D4D4D;fill-opacity:0.85;}
</style>
<g>
	<rect class="st0" width="23" height="18"/>
	<path class="st1" d="M3.1,16.4c-0.9,0-1.5-0.6-1.5-1.5v-0.6l3-2.6c0.4-0.4,0.9-0.6,1.3-0.6c0.5,0,1,0.2,1.4,0.6l1.9,1.7l4.7-4.1
		c0.5-0.4,1-0.6,1.6-0.6c0.5,0,1.1,0.2,1.6,0.6l4.5,4.2v1.5c0,0.9-0.6,1.5-1.5,1.5H3.1z M7.3,9.2C6,9.2,4.9,8.2,4.9,6.8
		c0-1.3,1.1-2.4,2.4-2.4c1.3,0,2.4,1.1,2.4,2.4C9.7,8.2,8.6,9.2,7.3,9.2z M3.1,18H20c2.1,0,3.1-1,3.1-3V3c0-2-1-3-3.1-3H3.1
		C1,0,0,1,0,3V15C0,17,1,18,3.1,18z"/>
</g>
</svg>
