<?xml version="1.0" encoding="utf-8"?>
<!-- Generator: Adobe Illustrator 25.3.1, SVG Export Plug-In . SVG Version: 6.00 Build 0)  -->
<svg version="1.1" id="图层_1" xmlns="http://www.w3.org/2000/svg" xmlns:xlink="http://www.w3.org/1999/xlink" x="0px" y="0px"
	 viewBox="0 0 18 20.4" style="enable-background:new 0 0 18 20.4;" xml:space="preserve">
<style type="text/css">
	.st0{fill:#4D4D4D;fill-opacity:0;}
	.st1{fill:#4D4D4D;fill-opacity:0.85;}
</style>
<g>
	<rect class="st0" width="18" height="20.4"/>
	<path class="st1" d="M0.8,12.5c0.5,0,0.8-0.4,0.8-0.8v-3c0-0.4-0.3-0.8-0.8-0.8C0.3,7.9,0,8.3,0,8.7v3C0,12.1,0.3,12.5,0.8,12.5z
		 M4.1,16.5c0.4,0,0.8-0.4,0.8-0.8V4.7c0-0.4-0.3-0.8-0.8-0.8c-0.4,0-0.8,0.4-0.8,0.8v10.9C3.3,16.1,3.6,16.5,4.1,16.5z M7.3,20.4
		c0.4,0,0.8-0.4,0.8-0.8V0.8C8.1,0.4,7.8,0,7.3,0C6.9,0,6.6,0.4,6.6,0.8v18.8C6.6,20,6.9,20.4,7.3,20.4z M10.6,15.3
		c0.4,0,0.8-0.3,0.8-0.8V5.9c0-0.4-0.3-0.8-0.8-0.8c-0.4,0-0.8,0.4-0.8,0.8v8.6C9.9,14.9,10.2,15.3,10.6,15.3z M13.9,18.2
		c0.4,0,0.8-0.4,0.8-0.8V2.9c0-0.4-0.3-0.8-0.8-0.8c-0.5,0-0.8,0.4-0.8,0.8v14.5C13.1,17.9,13.5,18.2,13.9,18.2z M17.2,13.3
		c0.4,0,0.8-0.4,0.8-0.8V7.9c0-0.4-0.4-0.8-0.8-0.8c-0.4,0-0.8,0.4-0.8,0.8v4.7C16.4,13,16.8,13.3,17.2,13.3z"/>
</g>
</svg>
